<?xml version="1.0" encoding="utf-8"?>
<!-- Generator: Adobe Illustrator 23.0.4, SVG Export Plug-In . SVG Version: 6.00 Build 0)  -->
<svg version="1.1" id="Capa_1" xmlns="http://www.w3.org/2000/svg" xmlns:xlink="http://www.w3.org/1999/xlink" x="0px" y="0px"
	 viewBox="0 0 512 512" style="enable-background:new 0 0 512 512;" xml:space="preserve">
<g>
	<path style="fill:#141414;" d="M366.4,35.3l-57.3-0.1c-64.3,0-105.9,42.6-105.9,108.7V194h-57.6c-5,0-9,4-9,9v72.6c0,5,4,9,9,9
		h57.6v183.2c0,5,4,9,9,9h75.1c5,0,9-4,9-9V284.6h67.3c5,0,9-4,9-9l0-72.6c0-2.4-1-4.7-2.6-6.4c-1.7-1.7-4-2.6-6.4-2.6h-67.3v-42.5
		c0-20.4,4.9-30.8,31.5-30.8l38.6,0c5,0,9-4,9-9V44.3C375.3,39.4,371.3,35.4,366.4,35.3z"/>
</g>
</svg>
