<?xml version="1.0" encoding="utf-8"?>
<!-- Generator: Adobe Illustrator 23.0.4, SVG Export Plug-In . SVG Version: 6.00 Build 0)  -->
<svg version="1.1" id="Layer_1" xmlns="http://www.w3.org/2000/svg" xmlns:xlink="http://www.w3.org/1999/xlink" x="0px" y="0px"
	 viewBox="0 0 55.2 35.6" style="enable-background:new 0 0 55.2 35.6;" xml:space="preserve">
<g>
	<g>
		<g>
			<path style="fill:#141414;" d="M52.4,1.8H2.8c-0.7,0-1.2,0.4-1.2,1v30c0,0.6,0.5,1,1.2,1h49.7c0.7,0,1.2-0.4,1.2-1v-30
				C53.6,2.2,53.1,1.8,52.4,1.8z M51.3,29.4L36.6,17l-1.7,1.4l15.8,13.4H4.4l15.8-13.4L18.6,17L3.9,29.4V3.8h47.3V29.4z"/>
		</g>
	</g>
	<g>
		<g>
			<path style="fill:#141414;" d="M48.9,3.8l-21.3,18L6.3,3.8H3.9v0.8l22.8,19.3c0.5,0.4,1.2,0.4,1.7,0L51.3,4.6V3.8H48.9z"/>
		</g>
	</g>
</g>
</svg>
