<?xml version="1.0" encoding="utf-8"?>
<!-- Generator: Adobe Illustrator 23.0.4, SVG Export Plug-In . SVG Version: 6.00 Build 0)  -->
<svg version="1.1" id="Layer_1" xmlns="http://www.w3.org/2000/svg" xmlns:xlink="http://www.w3.org/1999/xlink" x="0px" y="0px"
	 viewBox="0 0 70 70" style="enable-background:new 0 0 70 70;" xml:space="preserve">
<path style="fill:#141414;" d="M64.4,18.9l-0.4-0.8l0,0c-2.3-4.6-8.3-9.3-15.5-12c-9.1-3.4-18.7-3.2-26.3,0.5
	C19.6,7.8,7.6,18.1,3.6,30c-1.9,5.7-1.7,10.9,0.6,15.5c7.1,14,16.2,20.9,28,20.9c4.9,0,10.4-1.2,16.3-3.6c0.3-0.1,0.7-0.3,1-0.4
	c7.4-3.2,12.8-8.6,15.7-15.6C68.7,38.6,68.4,28.4,64.4,18.9z M47.9,60.9c-19,7.7-31.4,2.7-41.2-16.7c-2-4-2.2-9.1-0.4-14.3
	C10,18.9,20.7,9.5,23.1,8.4c0.3-0.1,0.6-0.3,0.9-0.4c6.9-3,15.6-3,23.8,0c7,2.6,12.7,8.8,14.6,13.3c4.1,9.8,4.4,19.2,0.8,25.3
	C59.9,52.1,55.7,57.8,47.9,60.9z"/>
</svg>
