<?xml version="1.0" encoding="utf-8"?>
<!-- Generator: Adobe Illustrator 23.0.4, SVG Export Plug-In . SVG Version: 6.00 Build 0)  -->
<svg version="1.1" id="Capa_1" xmlns="http://www.w3.org/2000/svg" xmlns:xlink="http://www.w3.org/1999/xlink" x="0px" y="0px"
	 viewBox="0 0 512 512" style="enable-background:new 0 0 512 512;" xml:space="preserve">
<style type="text/css">
	.st0{fill:#141414;}
</style>
<g>
	<g>
		<g>
			<path class="st0" d="M337.7,38H174.3C99,38,38,99,38,174.3v163.5C38,413,99,474,174.3,474h163.5C413,474,474,413,474,337.7V174.3
				C474,99,413,38,337.7,38z M433.1,337.7c0,52.6-42.8,95.4-95.4,95.4H174.3c-52.6,0-95.4-42.8-95.4-95.4V174.3
				c0-52.6,42.8-95.4,95.4-95.4h163.5c52.6,0,95.4,42.8,95.4,95.4V337.7z"/>
		</g>
	</g>
	<g>
		<g>
			<path class="st0" d="M256,147c-60.2,0-109,48.8-109,109s48.8,109,109,109s109-48.8,109-109S316.2,147,256,147z M256,324.1
				c-37.6,0-68.1-30.6-68.1-68.1c0-37.6,30.6-68.1,68.1-68.1s68.1,30.5,68.1,68.1C324.1,293.6,293.6,324.1,256,324.1z"/>
		</g>
	</g>
	<g>
		<g>
			<circle class="st0" cx="373.2" cy="138.8" r="14.5"/>
		</g>
	</g>
</g>
</svg>
