<?xml version="1.0" encoding="UTF-8" standalone="no"?> <svg id="Building" xmlns="http://www.w3.org/2000/svg" viewBox="0 0 64 64"><path d="M61,56H56V53.92A7,7,0,0,0,62,47c0-3.13-2.56-13-7-13a4.069,4.069,0,0,0-3,1.63V27.71l4.57,2.19A.907.907,0,0,0,57,30a.988.988,0,0,0,.53-.15A1.025,1.025,0,0,0,58,29V23a1,1,0,0,0-.57-.9L51,19.01V13h2a1,1,0,0,0,1-1V8a1,1,0,0,0-1-1H42a1,1,0,0,0-1,1v4a1,1,0,0,0,1,1h2v2.65L32.43,10.1a1,1,0,0,0-.86,0l-25,12A1,1,0,0,0,6,23v6a1.025,1.025,0,0,0,.47.85.994.994,0,0,0,.96.05L12,27.71v7.92A4.069,4.069,0,0,0,9,34c-4.44,0-7,9.87-7,13a7,7,0,0,0,6,6.92V56H3a1,1,0,0,0-1,1v4a1,1,0,0,0,1,1H61a1,1,0,0,0,1-1V57A1,1,0,0,0,61,56ZM8,60H4V58H8ZM43,11V9h9v2Zm6,2v5.05l-3-1.44V13ZM8,27.41V23.63L32,12.11,56,23.63v3.78L32.43,16.1a.975.975,0,0,0-.86,0ZM4,47c0-3.54,2.8-11,5-11s5,7.46,5,11A5,5,0,0,1,4,47Zm8,6.32V56H10V53.92A7.03,7.03,0,0,0,12,53.32ZM17.22,60H10V58h7.72Zm2.06,0,.5-2h8.44l.5,2ZM28,38V56H20V38Zm-8-2V34h8v2Zm9-4H19a1,1,0,0,0-1,1V56H14V51.89A6.952,6.952,0,0,0,16,47a23.981,23.981,0,0,0-2-8.06V26.75l18-8.64,18,8.64V38.94A23.981,23.981,0,0,0,48,47a6.952,6.952,0,0,0,2,4.89V56H30V33A1,1,0,0,0,29,32ZM54,60H30.78l-.5-2H54Zm0-4H52V53.32a7.03,7.03,0,0,0,2,.6Zm-4-9c0-3.54,2.8-11,5-11s5,7.46,5,11a5,5,0,0,1-10,0ZM60,60H56V58h4ZM46,32H34a1,1,0,0,0-1,1V46a1,1,0,0,0,1,1H46a1,1,0,0,0,1-1V33A1,1,0,0,0,46,32ZM35,34h4v8H35ZM45,45H35V44H45Zm0-3H41V34h4Z"/></svg>